<svg xmlns="http://www.w3.org/2000/svg" viewBox="0 0 512 512"><path d="
	M256,202.66
	A53.34,53.34,0,1,0,309.36,256,53.38,53.38,0,0,0,256,202.66
	Z
	m124.71-41
	a54,54,0,0,0-30.41-30.41
	c-21-8.29-71-6.43-94.3-6.43
	s-73.25-1.93-94.31,6.43
	a54,54,0,0,0-30.41,30.41
	c-8.28,21-6.43,71.05-6.43,94.33
	S123,329.26,131.32,350.33
	a54,54,0,0,0,30.41,30.41
	c21,8.29,71,6.43,94.31,6.43
	s73.24,1.93,94.3-6.43
	a54,54,0,0,0,30.41-30.41
	c8.35-21,6.43-71.05,6.43-94.33
	S389.1,182.74,380.75,161.67
	Z
	M256,338
	a82,82,0,1,1,82-82
	A81.9,81.9,0,0,1,256,338
	Z
	m85.38-148.3
	a19.14,19.14,0,1,1,19.13-19.14
	A19.1,19.1,0,0,1,341.42,189.74
	Z
	M432,32
	H80
	A48,48,0,0,0,32,80
	V432
	a48,48,0,0,0,48,48
	H432
	a48,48,0,0,0,48-48
	V80
	A48,48,0,0,0,432,32
	Z
	M414.88,322
	c-1.29,25.63-7.14,48.34-25.85,67
	s-41.4,24.63-67,25.85
	c-26.41,1.49-105.59,1.49-132,0-25.63-1.29-48.26-7.15-67-25.85
	s-24.63-41.42-25.85-67
	c-1.49-26.42-1.49-105.61,0-132,1.29-25.63,7.07-48.34,25.85-67
	s41.47-24.56,67-25.78
	c26.41-1.49,105.59-1.49,132,0,25.63,1.29,48.33,7.15,67,25.85
	s24.63,41.42,25.85,67.05
	C416.37,216.44,416.37,295.56,414.88,322
	Z"/></svg>