<svg xmlns="http://www.w3.org/2000/svg" width="120" height="24" viewBox="0 0 120 24"><path d="
	M12 0.288
	l-2.833 8.718
	h-9.167
	l7.416 5.389
	-2.833 8.718 
	7.417-5.388 
	7.416 5.388
	-2.833-8.718 
	7.417-5.389
	h-9.167
	z"/>
<path d="
	M36 0.288
	l-2.833 8.718
	h-9.167
	l7.416 5.389
	-2.833 8.718 
	7.417-5.388 
	7.416 5.388
	-2.833-8.718 
	7.417-5.389
	h-9.167
	z"/>
<path d="
	M60 0.288
	l-2.833 8.718
	h-9.167
	l7.416 5.389
	-2.833 8.718 
	7.417-5.388 
	7.416 5.388
	-2.833-8.718 
	7.417-5.389
	h-9.167
	z"/>
<path d="
	M84 0.288
	l-2.833 8.718
	h-9.167
	l7.416 5.389
	-2.833 8.718 
	7.417-5.388 
	7.416 5.388
	-2.833-8.718 
	7.417-5.389
	h-9.167
	z"/>
<path d="
	M108 0.288
	l-2.833 8.718
	h-9.167
	l7.416 5.389
	-2.833 8.718 
	7.417-5.388 
	7.416 5.388
	-2.833-8.718 
	7.417-5.389
	h-9.167
	z"/>
</svg>