<svg xmlns="http://www.w3.org/2000/svg" viewBox="0 0 576 576"><path d="
	M549.655 156.083
	c-6.281-23.65-24.787-42.276-48.284-48.597
	C458.781 96 288 96 288 96
	S117.22 96 74.629 107.486
	c-23.497 6.322-42.003 24.947-48.284 48.597-11.412 42.867-11.412 132.305-11.412 132.305
	s0 89.438 11.412 132.305
	c6.281 23.65 24.787 41.5 48.284 47.821
	C117.22 480 288 480 288 480
	s170.78 0 213.371-11.486
	c23.497-6.321 42.003-24.171 48.284-47.821 11.412-42.867 11.412-132.305 11.412-132.305
	s0-89.438-11.412-132.305
	z
	m-317.51 213.508
	V207.185
	l142.739 81.205-142.739 81.201
	z"/></svg>